<svg xmlns="http://www.w3.org/2000/svg" xmlns:xlink="http://www.w3.org/1999/xlink" width="166.384" height="36.404" viewBox="0 0 166.384 36.404">
  <defs>
    <linearGradient id="linear-gradient" x1="0.955" y1="1.071" x2="0.278" y2="0.505" gradientUnits="objectBoundingBox">
      <stop offset="0" stop-color="#00b2a9"/>
      <stop offset="0.175" stop-color="#00aeab"/>
      <stop offset="0.357" stop-color="#00a1b3"/>
      <stop offset="0.5" stop-color="#0092bc"/>
      <stop offset="0.548" stop-color="#0680b6"/>
      <stop offset="0.7" stop-color="#1749a3"/>
      <stop offset="0.832" stop-color="#242196"/>
      <stop offset="0.936" stop-color="#2b098e"/>
      <stop offset="1" stop-color="#2e008b"/>
    </linearGradient>
  </defs>
  <g id="ARKK_Logo_Horizontal_RGB" data-name="ARKK Logo Horizontal RGB" transform="translate(-231.35 -353.773)">
    <path id="Path_218" data-name="Path 218" d="M760.267,400.228l9.145-9.493a1.847,1.847,0,0,0-2.66-2.562l-13.087,13.585V389.437a1.847,1.847,0,1,0-3.695,0v25.111a1.847,1.847,0,1,0,3.695,0v-7.465l4.012-4.166,9.848,12.741a1.848,1.848,0,0,0,2.924-2.26Z" transform="translate(-402.777 -26.263)" fill="#1d252d"/>
    <path id="Path_219" data-name="Path 219" d="M903.308,413.4l-10.181-13.172,9.145-9.493a1.847,1.847,0,0,0-2.66-2.562l-13.087,13.585V389.437a1.847,1.847,0,1,0-3.695,0v25.111a1.847,1.847,0,1,0,3.695,0v-7.465l4.012-4.166,9.848,12.741a1.847,1.847,0,0,0,2.924-2.258Z" transform="translate(-505.96 -26.263)" fill="#1d252d"/>
    <path id="Path_220" data-name="Path 220" d="M481.494,407.9s0,0,0,0L473,388.707a.98.98,0,0,0-.06-.1,1.926,1.926,0,0,0-.1-.174,1.637,1.637,0,0,0-.107-.138,1.333,1.333,0,0,0-.259-.259c-.045-.036-.089-.074-.136-.1a1.717,1.717,0,0,0-.176-.1c-.036-.018-.065-.042-.1-.058-.013-.007-.027-.007-.04-.013a2.067,2.067,0,0,0-.2-.065c-.049-.016-.1-.031-.15-.042a1.429,1.429,0,0,0-.2-.022c-.054,0-.107-.013-.161-.013a1.81,1.81,0,0,0-.19.016c-.056.007-.112.009-.168.02s-.112.031-.168.047a1.751,1.751,0,0,0-.183.06c-.013.007-.029.007-.042.013-.038.018-.071.042-.109.063-.058.031-.114.06-.17.1a1.7,1.7,0,0,0-.141.109,1.722,1.722,0,0,0-.136.118c-.045.045-.083.092-.123.138s-.074.089-.107.138a1.661,1.661,0,0,0-.1.174c-.018.036-.042.067-.06.1l-8.495,19.19s0,0,0,0l-2.62,5.919a1.847,1.847,0,1,0,3.377,1.5l2.147-4.849h14.559l2.147,4.849a1.847,1.847,0,0,0,3.377-1.5Zm-15.83-1.132,5.645-12.752,5.645,12.752Z" transform="translate(-176.288 -26.279)" fill="#1d252d"/>
    <path id="Path_221" data-name="Path 221" d="M632.584,397.163A9.593,9.593,0,0,0,623,387.58H612.367a1.847,1.847,0,0,0-1.847,1.847v25.111a1.847,1.847,0,1,0,3.695,0v-7.8h7.9l7.179,9a1.847,1.847,0,0,0,2.886-2.305l-5.832-7.306A9.579,9.579,0,0,0,632.584,397.163ZM623,403.05h-8.787V391.275H623a5.888,5.888,0,0,1,0,11.776Z" transform="translate(-294.476 -26.255)" fill="#1d252d"/>
    <path id="Path_222" data-name="Path 222" d="M261.109,376.293l1.928-3.435c.007-.011.009-.025.016-.036a1.6,1.6,0,0,0,.083-.192c.02-.049.042-.1.058-.15a5.672,5.672,0,0,0,.069-.353,1.555,1.555,0,0,0,0-.176c0-.058,0-.118,0-.176a5.667,5.667,0,0,0-.069-.353c-.016-.051-.038-.1-.058-.15a1.6,1.6,0,0,0-.083-.192c-.007-.011-.009-.025-.016-.036l-9.158-16.333c-.02-.036-.047-.063-.069-.1a1.774,1.774,0,0,0-.118-.17,1.745,1.745,0,0,0-.125-.132c-.042-.042-.083-.083-.127-.121s-.114-.083-.174-.123c-.034-.02-.06-.047-.094-.067-.011-.007-.022-.009-.034-.016a1.533,1.533,0,0,0-.2-.085c-.047-.018-.094-.04-.143-.056a1.746,1.746,0,0,0-.188-.04,1.478,1.478,0,0,0-.163-.029,1.8,1.8,0,0,0-.19,0c-.054,0-.109,0-.163,0s-.123.022-.185.034-.112.02-.165.036-.1.04-.154.06a1.97,1.97,0,0,0-.188.08c-.011.007-.025.009-.036.016-.036.02-.065.047-.1.069a1.774,1.774,0,0,0-.17.118,3.349,3.349,0,0,0-.252.252,1.444,1.444,0,0,0-.118.17c-.022.034-.049.063-.067.1L241.5,371.041a1.848,1.848,0,1,0,3.223,1.807l7.548-13.458,7.041,12.556-1.789,3.192a23.353,23.353,0,0,0-5.251-.6,22.946,22.946,0,0,0-20.733,12.931c-.007.016-.009.029-.016.045a1.751,1.751,0,0,0-.071.19c-.018.054-.038.107-.051.163s-.018.112-.027.168-.018.134-.02.2c0,.016,0,.031,0,.047,0,.038.009.074.011.114,0,.067.009.134.02.2a1.441,1.441,0,0,0,.04.17,1.532,1.532,0,0,0,.054.172c.022.056.047.109.074.163s.054.105.085.156a1.6,1.6,0,0,0,.1.141,1.77,1.77,0,0,0,.116.141c.04.042.083.08.127.121a1.71,1.71,0,0,0,.138.114c.054.038.109.071.168.1.034.02.063.045.1.063.016.007.031.011.045.018a1.847,1.847,0,0,0,.185.069c.056.018.109.038.165.051s.109.018.163.025a1.6,1.6,0,0,0,.205.02c.016,0,.031,0,.047,0h19.073a1.847,1.847,0,0,0,.333-.034c.027,0,.051-.009.078-.016a1.969,1.969,0,0,0,.3-.094l.034-.016a1.977,1.977,0,0,0,.252-.136.612.612,0,0,0,.063-.042,1.845,1.845,0,0,0,.447-.447.883.883,0,0,0,.049-.076c.018-.029.038-.054.054-.083l5.41-9.645a19.289,19.289,0,0,1,10.4,9.556A1.848,1.848,0,0,0,273,387.465,22.969,22.969,0,0,0,261.109,376.293Zm-9.924,10.145H236.434a19.246,19.246,0,0,1,15.832-8.2,19.777,19.777,0,0,1,3.351.3Z" fill="url(#linear-gradient)"/>
  </g>
</svg>