<?xml version="1.0" encoding="UTF-8"?>
<svg xmlns="http://www.w3.org/2000/svg" xmlns:xlink="http://www.w3.org/1999/xlink" width="135px" height="40px" viewBox="0 0 135 40"> <title>Group 3 Copy 2</title> <g id="Page-1" stroke="none" stroke-width="1" fill="none" fill-rule="evenodd"> <g id="Group-3-Copy-2"> <path d="M71.8950862,10.8108108 C71.8950862,4.51942567 67.9323142,2.03839476 64.3241971,2.03839476 C60.7162072,2.03839476 56.7534352,4.51942567 56.7534352,10.8105567 C56.7534352,17.1019419 60.7162072,19.5833539 64.3241971,19.5833539 C67.9323142,19.5833539 71.8950862,17.1019419 71.8950862,10.8108108 Z M64.3241971,0.000129371014 C70.6233916,-0.0292156897 74.0540541,4.93767402 74.0540541,10.8105567 C74.0540541,16.6834394 70.6233916,21.6508373 64.3241971,21.6214923 C58.0251299,21.6508373 54.5945946,16.6834394 54.5945946,10.8108108 C54.5945946,4.93767402 58.0251299,-0.0292156897 64.3241971,0.000129371014 Z" id="Fill-1-Copy-5" fill="#000000"/> <path d="M40.6858546,19.6738063 L35.0145356,19.6738063 L35.0145356,3.02902337 L40.6858546,3.02902337 C44.0319048,3.02902337 48.2285857,5.03574034 48.2285857,11.3512879 C48.2285857,17.6669624 44.0319048,19.6738063 40.6858546,19.6738063 M40.6858546,1.08108108 L32.972973,1.08108108 L32.972973,21.6216216 L40.6858546,21.6216216 C46.6123384,21.6216216 50.2702703,17.2189801 50.2702703,11.3512879 C50.2702703,5.48346875 46.6123384,1.08108108 40.6858546,1.08108108" id="Fill-3-Copy-5" fill="#000000"/> <polygon id="Fill-5-Copy-5" fill="#000000" points="88.6486486 19.6738063 88.6486486 21.6216216 78.3783784 21.6216216 78.3783784 1.08108108 80.4007758 1.08108108 80.4007758 19.6738063"/> <polygon id="Fill-7-Copy-5" fill="#000000" points="109.189189 21.6216216 111.351351 21.6216216 111.351351 1.08108108 109.189189 1.08108108"/> <polygon id="Fill-9-Copy-5" fill="#000000" points="134.594595 1.08120802 134.594595 21.6216216 132.518409 21.6216216 132.224709 21.6216216 119.254957 3.83687241 119.254957 21.6216216 117.297297 21.6216216 117.297297 1.08108108 119.373483 1.08108108 119.660676 1.08108108 132.636935 18.8160689 132.636935 1.08120802"/> <polygon id="Fill-10-Copy-5" fill="#000000" points="94.4654196 3.02902337 94.4654196 9.58055819 102.964905 9.58055819 102.964905 11.5285005 94.4654196 11.5285005 94.4654196 21.6216216 92.4324324 21.6216216 92.4324324 1.08108108 103.783784 1.08108108 103.783784 3.02902337"/> <path d="M9.93753872,22.1621622 L2.80828261,22.1591676 C1.87223245,22.1591676 0,21.4669134 0,19.3889787 C0,17.5457882 1.32307598,17.1240821 2.57387366,15.4655101 C3.64919498,14.0407708 4.09766396,12.6929777 4.09766396,11.0807556 C4.09766396,9.46931469 3.64919498,8.12152151 2.57387366,6.69600108 C1.32307598,5.03808007 0,4.61650411 0,2.77318341 C0,0.695118603 1.87223245,0.00312471371 2.80828261,0.00312471371 L9.93753872,0 C15.8814044,0 21.0810811,3.24215086 21.0810811,11.0807556 C21.0810811,18.9200113 15.8814044,22.1621622 9.93753872,22.1621622 Z" id="Fill-11-Copy-37" fill="#F82F38"/> <path d="M37.3891892,36.4054054 L37.3891892,35.6075676 L33.7113514,35.6075676 L33.7113514,33.252973 L37.0778378,33.252973 L37.0778378,32.4648649 L33.7113514,32.4648649 L33.7113514,30.2756757 L37.2821622,30.2756757 L37.2821622,29.4778378 L32.8162162,29.4778378 L32.8162162,36.4054054 L37.3891892,36.4054054 Z M43.0244022,36.5416216 C43.8546725,36.5416216 44.4903482,36.3081081 44.9314293,35.8410811 C45.3725103,35.3740541 45.5930509,34.6962162 45.5930509,33.8075676 L45.5930509,33.8075676 L45.5930509,29.4778378 L44.688186,29.4778378 L44.688186,33.7881081 C44.688186,34.4237838 44.5438617,34.9054054 44.255213,35.232973 C43.9665644,35.5605405 43.5562941,35.7243243 43.0244022,35.7243243 C42.4925103,35.7243243 42.0806184,35.5605405 41.7887265,35.232973 C41.4968347,34.9054054 41.3508887,34.4237838 41.3508887,33.7881081 L41.3508887,33.7881081 L41.3508887,29.4778378 L40.4557536,29.4778378 L40.4557536,33.8075676 C40.4557536,34.7027027 40.6746725,35.3821622 41.1125103,35.8459459 C41.5503482,36.3097297 42.1876455,36.5416216 43.0244022,36.5416216 Z M50.1385342,36.4054054 L50.1385342,33.4864865 L51.3547504,33.4864865 C51.7244801,33.4864865 52.0050207,33.5643243 52.196372,33.72 C52.3877234,33.8756757 52.5547504,34.1610811 52.6974531,34.5762162 L52.6974531,34.5762162 L53.3298855,36.4054054 L54.3028585,36.4054054 L53.5925882,34.4108108 C53.4369126,33.9827027 53.2877234,33.6778378 53.1450207,33.4962162 C53.002318,33.3145946 52.8044801,33.1848649 52.5515072,33.107027 L52.5515072,33.107027 L52.5515072,33.0875676 C52.9536693,32.9967568 53.2747504,32.7956757 53.5147504,32.4843243 C53.7547504,32.172973 53.8747504,31.7967568 53.8747504,31.3556757 C53.8747504,30.7524324 53.6736693,30.2886486 53.2715072,29.9643243 C52.869345,29.64 52.2596153,29.4778378 51.442318,29.4778378 L51.442318,29.4778378 L49.243399,29.4778378 L49.243399,36.4054054 L50.1385342,36.4054054 Z M51.4325882,32.7275676 L50.1385342,32.7275676 L50.1385342,30.2464865 L51.3742099,30.2464865 C52.4315072,30.2464865 52.9601558,30.6389189 52.9601558,31.4237838 C52.9601558,31.8194595 52.8352909,32.1356757 52.5855612,32.3724324 C52.3358315,32.6091892 51.9515072,32.7275676 51.4325882,32.7275676 L51.4325882,32.7275676 Z M59.9088823,36.5416216 C60.544558,36.5416216 61.0991526,36.3956757 61.5726661,36.1037838 C62.0461796,35.8118919 62.4110445,35.3951351 62.6672607,34.8535135 C62.9234769,34.3118919 63.0515851,33.6745946 63.0515851,32.9416216 C63.0515851,32.2086486 62.9234769,31.5713514 62.6672607,31.0297297 C62.4110445,30.4881081 62.0461796,30.0713514 61.5726661,29.7794595 C61.0991526,29.4875676 60.544558,29.3416216 59.9088823,29.3416216 C59.2732067,29.3416216 58.7186121,29.4875676 58.2450986,29.7794595 C57.7715851,30.0713514 57.4067202,30.4881081 57.150504,31.0297297 C56.8942878,31.5713514 56.7661796,32.2086486 56.7661796,32.9416216 C56.7661796,33.6745946 56.8942878,34.3118919 57.150504,34.8535135 C57.4067202,35.3951351 57.7715851,35.8118919 58.2450986,36.1037838 C58.7186121,36.3956757 59.2732067,36.5416216 59.9088823,36.5416216 Z M59.9088823,35.7243243 C59.4613148,35.7243243 59.070504,35.6108108 58.7364499,35.3837838 C58.4023959,35.1567568 58.1461796,34.8340541 57.9678013,34.4156757 C57.7894229,33.9972973 57.7002337,33.5059459 57.7002337,32.9416216 C57.7002337,32.3772973 57.7894229,31.8859459 57.9678013,31.4675676 C58.1461796,31.0491892 58.4023959,30.7264865 58.7364499,30.4994595 C59.070504,30.2724324 59.4613148,30.1589189 59.9088823,30.1589189 C60.3564499,30.1589189 60.7472607,30.2724324 61.0813148,30.4994595 C61.4153688,30.7264865 61.6715851,31.0491892 61.8499634,31.4675676 C62.0283418,31.8859459 62.117531,32.3772973 62.117531,32.9416216 C62.117531,33.5059459 62.0283418,33.9972973 61.8499634,34.4156757 C61.6715851,34.8340541 61.4153688,35.1567568 61.0813148,35.3837838 C60.7472607,35.6108108 60.3564499,35.7243243 59.9088823,35.7243243 Z M67.1592305,36.4054054 L67.1592305,33.6616216 L68.6381494,33.6616216 C69.4230143,33.6616216 70.0230143,33.4751351 70.4381494,33.1021622 C70.8532846,32.7291892 71.0608521,32.2183784 71.0608521,31.5697297 C71.0608521,30.9210811 70.8532846,30.4102703 70.4381494,30.0372973 C70.0230143,29.6643243 69.4230143,29.4778378 68.6381494,29.4778378 L68.6381494,29.4778378 L66.2640954,29.4778378 L66.2640954,36.4054054 L67.1592305,36.4054054 Z M68.5700413,32.8832432 L67.1592305,32.8832432 L67.1592305,30.2562162 L68.5700413,30.2562162 C69.0889602,30.2562162 69.4797711,30.3713514 69.7424738,30.6016216 C70.0051765,30.8318919 70.1365278,31.1545946 70.1365278,31.5697297 C70.1365278,31.9848649 70.0051765,32.3075676 69.7424738,32.5378378 C69.4797711,32.7681081 69.0889602,32.8832432 68.5700413,32.8832432 L68.5700413,32.8832432 Z M78.7003895,36.4054054 L78.7003895,35.6075676 L75.0225517,35.6075676 L75.0225517,33.252973 L78.3890381,33.252973 L78.3890381,32.4648649 L75.0225517,32.4648649 L75.0225517,30.2756757 L78.5933625,30.2756757 L78.5933625,29.4778378 L74.1274165,29.4778378 L74.1274165,36.4054054 L78.7003895,36.4054054 Z" id="EUROPE" fill="#000000" fill-rule="nonzero"/> </g> </g> </svg>