
        <svg xmlns="http://www.w3.org/2000/svg" xmlns:xlink="http://www.w3.org/1999/xlink" version="1.1" width="3171.4285714285716" 
        height="1412.6755648917888" viewBox="0 0 3171.4285714285716 1412.6755648917888">
			<rect fill="#fcfcfc" width="3171.4285714285716" height="1412.6755648917888"/>
			<g transform="scale(8.571428571428571) translate(10, 10)">
				<defs id="SvgjsDefs1031"></defs><g id="SvgjsG1032" featureKey="aMgJeN-0" transform="matrix(1.029411792755127,0,0,1.029411792755127,124,0)" fill="#111111"><defs xmlns="http://www.w3.org/2000/svg"></defs><title xmlns="http://www.w3.org/2000/svg">Asset 832ldpi</title><g xmlns="http://www.w3.org/2000/svg" data-name="Layer 2"><g data-name="Layer 1"><rect width="100" height="100" style="fill: none;"></rect><path d="M87.77,55.58c2.49-5.2,5.07-10.56,5.07-20,0-11.62-5-20.93-14.34-26.92C64.64-.19,45,.69,33.6,6,18.37,13.09,15.15,25.36,14.77,27.06,13,32.6,15,38.8,16.35,41.94,6.61,52.74,7.06,56.37,7.21,57.56a4.22,4.22,0,0,0,1.84,3,17.28,17.28,0,0,0,5.58,2.52l-.08,3.25a14.39,14.39,0,0,0,2.26,8.1l.66,1.05c-.27,6.31,1.45,16.29,9.62,17.55,3.93.6,10.07-1.39,16.55-4.58C46,93.84,61,98,72.14,98a32.63,32.63,0,0,0,5.44-.41c7.49-1.28,8.81-5.29,8.93-7.57.06-1.17-.38-2.63-1.31-5.55C84,80.7,82.17,75,82.68,71.25A47.1,47.1,0,0,1,87.77,55.58ZM80.35,86a34.56,34.56,0,0,1,1.08,3.73c-.09,1.62-2.44,2.4-4.4,2.77-10,1.87-26.13-2.86-28.51-5.75h0c1.47-1,3.63-2.69,6-4.56a84.42,84.42,0,0,0,12.3-9.65,2.69,2.69,0,0,0-3.6-4c-2.67,2.21-7.66,6.32-11.91,9.69C42.43,84,32.37,88.72,27.86,88c-6-.92-5.27-12.88-5.26-13l.06-.85L21.1,71.73a9.31,9.31,0,0,1-1.46-5.25l.13-5.54.09-2.09a.64.64,0,0,0-.7-.67l-2.08.16a9.45,9.45,0,0,1-4.79-1.72c.25-1.38,2.43-5.28,7.84-11.28A5,5,0,0,0,21,40c-.88-2.08-2.77-7.37-1.39-11.51l.08-.31c.1-.46,2.44-11.28,16-17.6,10.19-4.74,27.68-5.54,40,2.32,8,5.08,12,12.69,12,22.63,0,8.29-2.12,12.7-4.57,17.8a52.17,52.17,0,0,0-5.55,17.2C77,75.46,78.92,81.56,80.35,86Z"></path><path d="M66.47,25a1.86,1.86,0,0,0-2.63,2.64l6.71,6.7-6.71,6.71a1.87,1.87,0,0,0,0,2.63,1.87,1.87,0,0,0,2.63,0l8-8a2,2,0,0,0,0-2.74Z"></path><path d="M44.6,25A1.92,1.92,0,0,0,42,25l-8,8a1.91,1.91,0,0,0-.57,1.37A2,2,0,0,0,34,35.74l8,8a1.86,1.86,0,0,0,2.64-2.63l-6.71-6.71,6.71-6.7A1.88,1.88,0,0,0,44.6,25Z"></path><path d="M58.88,20.77a1.86,1.86,0,0,0-2.36,1.16L48.4,45.61A1.84,1.84,0,0,0,48.49,47a1.87,1.87,0,0,0,1.07.94,1.76,1.76,0,0,0,.6.1,1.85,1.85,0,0,0,1.76-1.26L60,23.13A1.86,1.86,0,0,0,58.88,20.77Z"></path></g></g></g><g id="SvgjsG1033" featureKey="8L6ael-0" transform="matrix(1.4535465240478516,0,0,1.4535465240478516,-0.28728973218747045,115.74122070415413)" fill="#111111"><path d="M20.72 5.300000000000001 q0.2 0.28 0.1 0.62 l-4.22 13.54 q-0.06 0.22 -0.25 0.36 t-0.43 0.14 l-1.74 0 q-0.22 0 -0.41 -0.14 t-0.25 -0.34 l-3 -9.28 l-2.98 9.28 q-0.08 0.22 -0.26 0.35 t-0.42 0.13 l-1.74 0 q-0.36 0 -0.58 -0.28 q-0.2 -0.34 -0.08 -0.64 l4.52 -13.56 q0.06 -0.2 0.25 -0.34 t0.41 -0.14 l1.76 0 q0.24 0 0.42 0.14 t0.26 0.36 l2.96 9.2 l2.8 -9.2 q0.08 -0.22 0.27 -0.36 t0.41 -0.14 l1.62 0 q0.38 0 0.58 0.3 z M3.2 5.5 l1.14 3.74 q0.12 0.34 -0.1 0.63 t-0.58 0.29 l-1.58 0 q-0.24 0 -0.43 -0.14 t-0.25 -0.36 l-1.16 -3.74 q-0.12 -0.34 0.1 -0.63 t0.56 -0.29 l1.62 0 q0.24 0 0.43 0.14 t0.25 0.36 z M37.588 18.86 q0.14 0.32 -0.07 0.65 t-0.57 0.33 l-13.32 0 q-0.18 0 -0.34 -0.09 t-0.24 -0.23 q-0.22 -0.32 -0.06 -0.66 l0.62 -1.46 q0.08 -0.2 0.26 -0.32 t0.38 -0.12 l9.32 0 l-3.28 -7.84 l-2.68 6.4 q-0.08 0.2 -0.25 0.31 t-0.39 0.11 l-1.68 0 q-0.38 0 -0.6 -0.32 q-0.08 -0.14 -0.1 -0.32 t0.04 -0.34 l4.06 -9.52 q0.08 -0.2 0.25 -0.32 t0.39 -0.12 l1.92 0 q0.22 0 0.39 0.12 t0.25 0.32 z M43.355999999999995 5 q0.28 0 0.49 0.21 t0.21 0.49 l0 13.4 q0 0.28 -0.21 0.49 t-0.49 0.21 l-1.52 0 q-0.28 0 -0.49 -0.21 t-0.21 -0.49 l0 -13.4 q0 -0.28 0.21 -0.49 t0.49 -0.21 l1.52 0 z M50.656 16.94 q0.3 0 0.5 0.21 t0.2 0.49 l0 1.46 q0 0.28 -0.2 0.49 t-0.5 0.21 l-4.66 0 q-0.3 0 -0.5 -0.21 t-0.2 -0.49 l0 -1.46 q0 -0.28 0.2 -0.49 t0.5 -0.21 l4.66 0 z M56.484 5 q0.3 0 0.51 0.21 t0.21 0.51 l0 1.46 q0 0.3 -0.21 0.51 t-0.51 0.21 l-2.06 0 q-0.28 0 -0.49 -0.21 t-0.21 -0.51 l0 -1.46 q0 -0.3 0.21 -0.51 t0.49 -0.21 l2.06 0 z M65.424 5 q0.28 0 0.49 0.21 t0.21 0.51 l0 1.46 q0 0.3 -0.21 0.51 t-0.49 0.21 l-4.02 0 l0 11.36 q0 0.28 -0.21 0.49 t-0.49 0.21 l-1.54 0 q-0.3 0 -0.51 -0.21 t-0.21 -0.49 l0 -13.54 q0 -0.3 0.21 -0.51 t0.51 -0.21 l6.26 0 z M80.192 17.12 q0.28 0 0.49 0.21 t0.21 0.49 l0 1.44 q0 0.28 -0.21 0.49 t-0.49 0.21 l-10.74 0 q-0.28 0 -0.49 -0.21 t-0.21 -0.49 l0 -1.46 q0 -0.24 0.16 -0.44 l2.86 -3.46 q0.22 -0.26 0.54 -0.26 l1.92 0 q0.2 0 0.38 0.11 t0.27 0.3 t0.06 0.4 t-0.17 0.35 l-1.92 2.32 l7.34 0 z M80.192 5 q0.28 0 0.49 0.21 t0.21 0.51 l0 1.46 q0 0.26 -0.16 0.46 l-2.86 3.42 q-0.2 0.26 -0.54 0.26 l-1.9 0 q-0.2 0 -0.38 -0.11 t-0.28 -0.29 q-0.16 -0.44 0.1 -0.76 l1.92 -2.3 l-7.2 0 q-0.3 0 -0.51 -0.21 t-0.21 -0.51 l0 -1.42 q0 -0.3 0.21 -0.51 t0.51 -0.21 l10.6 0 z M87.12 10.94 q0.3 0 0.5 0.21 t0.2 0.51 l0 7.48 q0 0.28 -0.2 0.49 t-0.5 0.21 l-1.52 0 q-0.28 0 -0.49 -0.21 t-0.21 -0.49 l0 -7.48 q0 -0.3 0.21 -0.51 t0.49 -0.21 l1.52 0 z M87.12 5 q0.3 0 0.5 0.21 t0.2 0.49 l0 3.7 q0 0.3 -0.2 0.51 t-0.5 0.21 l-1.52 0 q-0.28 0 -0.49 -0.21 t-0.21 -0.51 l0 -3.7 q0 -0.28 0.21 -0.49 t0.49 -0.21 l1.52 0 z M105.088 5 q0.28 0 0.49 0.21 t0.21 0.49 l0 13.4 q0 0.28 -0.21 0.49 t-0.49 0.21 l-1.76 0 q-0.36 0 -0.58 -0.28 l-9.78 -13.4 q-0.12 -0.16 -0.14 -0.36 t0.07 -0.38 t0.26 -0.28 t0.37 -0.1 l1.76 0 q0.16 0 0.32 0.07 t0.24 0.21 l7.02 9.54 l0 -9.12 q0 -0.28 0.2 -0.49 t0.5 -0.21 l1.52 0 z M95.048 14.7 q0.28 0 0.49 0.2 t0.21 0.5 l0 3.7 q0 0.28 -0.21 0.49 t-0.49 0.21 l-1.52 0 q-0.28 0 -0.49 -0.21 t-0.21 -0.49 l0 -3.7 q0 -0.3 0.21 -0.5 t0.49 -0.2 l1.52 0 z M118.656 7.9 q-0.24 -0.04 -0.4 -0.24 t-0.16 -0.44 l0 -1.52 q0 -0.3 0.24 -0.54 q0.26 -0.2 0.58 -0.14 q2.36 0.4 4 2.1 q0.84 0.88 1.36 2 q0.08 0.14 0.07 0.32 t-0.11 0.34 t-0.25 0.25 t-0.33 0.09 l-1.7 0 q-0.18 0 -0.34 -0.09 t-0.26 -0.25 q-0.28 -0.42 -0.52 -0.66 q-0.9 -0.92 -2.18 -1.22 z M116.616 5.16 q0.24 0.24 0.24 0.54 l0 1.52 q0 0.24 -0.16 0.44 t-0.4 0.24 q-1.28 0.3 -2.18 1.22 q-1.24 1.34 -1.24 3.35 t1.24 3.35 q0.86 0.92 2.18 1.22 q0.24 0.04 0.4 0.24 t0.16 0.44 l0 1.52 q0 0.32 -0.26 0.54 q-0.2 0.16 -0.44 0.16 l-0.12 0 q-2.4 -0.44 -4 -2.12 q-2.08 -2.14 -2.08 -5.35 t2.08 -5.35 q1.62 -1.7 4 -2.1 q0.32 -0.06 0.58 0.14 z M124.976 12.059999999999999 q0.02 0.14 0.02 0.42 q0 0.44 -0.06 1.02 q-0.3 2.54 -2.02 4.32 q-1.64 1.7 -4 2.12 l-0.12 0 q-0.24 0 -0.46 -0.16 q-0.24 -0.24 -0.24 -0.54 l0 -1.52 q0 -0.24 0.16 -0.44 t0.4 -0.24 q1.32 -0.3 2.18 -1.22 q0.7 -0.74 1 -1.7 l-4.24 0 q-0.3 0 -0.5 -0.2 t-0.2 -0.5 l0 -1.42 q0 -0.28 0.2 -0.49 t0.5 -0.21 l6.68 0 q0.28 0 0.48 0.19 t0.22 0.47 l0 0.1 z M137.152 10.94 q0.3 0 0.5 0.21 t0.2 0.51 l0 7.48 q0 0.28 -0.2 0.49 t-0.5 0.21 l-1.52 0 q-0.28 0 -0.49 -0.21 t-0.21 -0.49 l0 -7.48 q0 -0.3 0.21 -0.51 t0.49 -0.21 l1.52 0 z M137.152 5 q0.3 0 0.5 0.21 t0.2 0.49 l0 3.7 q0 0.3 -0.2 0.51 t-0.5 0.21 l-1.52 0 q-0.28 0 -0.49 -0.21 t-0.21 -0.51 l0 -3.7 q0 -0.28 0.21 -0.49 t0.49 -0.21 l1.52 0 z M155.11999999999998 5 q0.28 0 0.49 0.21 t0.21 0.49 l0 13.4 q0 0.28 -0.21 0.49 t-0.49 0.21 l-1.76 0 q-0.36 0 -0.58 -0.28 l-9.78 -13.4 q-0.12 -0.16 -0.14 -0.36 t0.07 -0.38 t0.26 -0.28 t0.37 -0.1 l1.76 0 q0.16 0 0.32 0.07 t0.24 0.21 l7.02 9.54 l0 -9.12 q0 -0.28 0.2 -0.49 t0.5 -0.21 l1.52 0 z M145.07999999999998 14.7 q0.28 0 0.49 0.2 t0.21 0.5 l0 3.7 q0 0.28 -0.21 0.49 t-0.49 0.21 l-1.52 0 q-0.28 0 -0.49 -0.21 t-0.21 -0.49 l0 -3.7 q0 -0.3 0.21 -0.5 t0.49 -0.2 l1.52 0 z M168.21599999999995 5 q0.3 0 0.51 0.21 t0.21 0.51 l0 1.46 q0 0.3 -0.21 0.51 t-0.51 0.21 l-2.06 0 q-0.28 0 -0.49 -0.21 t-0.21 -0.51 l0 -1.46 q0 -0.3 0.21 -0.51 t0.49 -0.21 l2.06 0 z M177.15599999999995 5 q0.28 0 0.49 0.21 t0.21 0.51 l0 1.46 q0 0.3 -0.21 0.51 t-0.49 0.21 l-4.02 0 l0 11.36 q0 0.28 -0.21 0.49 t-0.49 0.21 l-1.54 0 q-0.3 0 -0.51 -0.21 t-0.21 -0.49 l0 -13.54 q0 -0.3 0.21 -0.51 t0.51 -0.21 l6.26 0 z M191.00399999999996 14.1 l3.02 4.62 q0.22 0.36 0.02 0.72 q-0.08 0.16 -0.25 0.26 t-0.35 0.1 l-1.82 0 q-0.18 0 -0.34 -0.09 t-0.24 -0.23 l-3.04 -4.82 l-3.56 0 l0 4.44 q0 0.28 -0.21 0.49 t-0.49 0.21 l-1.52 0 q-0.28 0 -0.49 -0.21 t-0.21 -0.49 l0 -6.58 q0 -0.28 0.21 -0.49 t0.49 -0.21 l6.16 0 q1.76 0 2.34 -1 q0.2 -0.32 0.2 -0.92 q0 -0.94 -0.62 -1.48 q-0.64 -0.58 -1.84 -0.58 l-6.24 0 q-0.28 0 -0.49 -0.21 t-0.21 -0.49 l0 -1.44 q0 -0.28 0.21 -0.49 t0.49 -0.21 l6.42 0 q2.34 0 3.74 1.32 q1.46 1.32 1.46 3.58 q0 1.46 -0.64 2.49 t-1.86 1.57 z M210.81199999999995 5.380000000000001 q0.1 0.18 0.09 0.38 t-0.13 0.36 l-5.54 8 l0 5.14 q0 0.28 -0.21 0.49 t-0.49 0.21 l-1.54 0 q-0.3 0 -0.51 -0.21 t-0.21 -0.49 l0 -5.86 q0 -0.2 0.14 -0.4 l5.34 -7.7 q0.1 -0.14 0.25 -0.22 t0.33 -0.08 l1.86 0 q0.2 0 0.37 0.1 t0.25 0.28 z M202.39199999999997 9.78 q-0.08 0.18 -0.25 0.28 t-0.37 0.1 l-1.86 0 q-0.36 0 -0.6 -0.3 l-2.6 -3.74 q-0.1 -0.16 -0.11 -0.36 t0.07 -0.38 t0.25 -0.28 t0.37 -0.1 l1.88 0 q0.34 0 0.58 0.3 l2.6 3.74 q0.1 0.16 0.11 0.36 t-0.07 0.38 z M224.07999999999996 12.42 q0.86 0.54 1.31 1.32 t0.45 1.74 q0 2.26 -1.72 3.46 q-1.16 0.84 -3.14 1.06 l-0.08 0 q-0.28 0 -0.46 -0.18 q-0.24 -0.22 -0.24 -0.52 l0 -1.44 q0 -0.26 0.18 -0.46 t0.44 -0.24 q0.94 -0.1 1.46 -0.44 q0.4 -0.24 0.54 -0.62 q0.08 -0.22 0.08 -0.56 q0 -0.22 -0.08 -0.38 t-0.28 -0.3 q-0.58 -0.4 -1.5 -0.68 l-0.32 -0.1 q-1 -0.28 -1.84 -0.46 q-0.18 -0.04 -0.58 -0.14 l-0.22 -0.06 q-0.72 -0.18 -1.52 -0.5 q-1.18 -0.5 -1.94 -1.26 q-0.88 -0.88 -0.88 -2.32 q0 -1.98 1.52 -3.22 q1.04 -0.88 2.92 -1.12 q0.32 -0.04 0.55 0.18 t0.23 0.52 l0 1.44 q0 0.26 -0.16 0.46 t-0.41 0.23 t-0.51 0.11 q-0.58 0.22 -0.82 0.43 t-0.34 0.43 q-0.1 0.34 -0.1 0.64 q0 0.16 0.18 0.34 q0.28 0.28 0.82 0.5 q0.24 0.1 0.84 0.3 l2.5 0.62 l0.12 0.04 q0.94 0.26 1.36 0.4 q0.94 0.32 1.64 0.78 z M220.73999999999995 7.9 q-0.24 -0.06 -0.39 -0.25 t-0.15 -0.45 l0 -1.46 q0 -0.32 0.26 -0.54 q0.1 -0.1 0.26 -0.13 t0.3 -0.01 q1.76 0.28 2.86 1.2 q1.5 1.24 1.6 3.16 q0.02 0.28 -0.19 0.51 t-0.51 0.23 l-1.56 0 q-0.26 0 -0.46 -0.18 t-0.22 -0.44 q-0.08 -0.52 -0.34 -0.86 q-0.42 -0.5 -1.3 -0.76 q-0.06 0 -0.08 -0.02 l-0.08 0 z M218.39999999999995 17.08 q0.24 0.04 0.4 0.24 t0.16 0.44 l0 1.48 q0 0.32 -0.24 0.54 q-0.2 0.16 -0.46 0.16 l-0.1 0 q-1.86 -0.28 -3.06 -1.22 q-1.56 -1.24 -1.76 -3.46 q-0.04 -0.32 0.18 -0.55 t0.52 -0.23 l1.58 0 q0.28 0 0.48 0.19 t0.22 0.47 q0.06 1 0.98 1.54 q0.42 0.24 1.1 0.4 z M231.34799999999993 5 q0.3 0 0.51 0.21 t0.21 0.51 l0 1.46 q0 0.3 -0.21 0.51 t-0.51 0.21 l-2.06 0 q-0.28 0 -0.49 -0.21 t-0.21 -0.51 l0 -1.46 q0 -0.3 0.21 -0.51 t0.49 -0.21 l2.06 0 z M240.28799999999993 5 q0.28 0 0.49 0.21 t0.21 0.51 l0 1.46 q0 0.3 -0.21 0.51 t-0.49 0.21 l-4.02 0 l0 11.36 q0 0.28 -0.21 0.49 t-0.49 0.21 l-1.54 0 q-0.3 0 -0.51 -0.21 t-0.21 -0.49 l0 -13.54 q0 -0.3 0.21 -0.51 t0.51 -0.21 l6.26 0 z"></path></g>
			</g>
		</svg>
	